<mxfile host="app.diagrams.net" modified="2023-09-01T06:34:00.314Z" agent="Mozilla/5.0 (Windows NT 10.0; Win64; x64) AppleWebKit/537.36 (KHTML, like Gecko) Chrome/116.0.0.0 Safari/537.36" version="21.7.1" etag="I24FfbBKi3wMyZuS_X09" type="github">
  <diagram name="第 1 页" id="pDrd_aaPB0P1TF7YFiHG">
    <mxGraphModel>
      <root>
        <mxCell id="0" />
        <mxCell id="1" parent="0" />
      </root>
    </mxGraphModel>
  </diagram>
</mxfile>
